<svg width="60" height="44" viewBox="0 0 60 44" fill="none" xmlns="http://www.w3.org/2000/svg">
<circle cx="30" cy="13.125" r="5.625" fill="white"/>
<path d="M54.3158 15C51.158 19.6875 43.8947 26.25 38.2105 26.25C38.2105 22.5 35.3684 11.25 41.0527 5.625C46.7368 0.9375 56.8607 0 60 0C59.0526 8.4375 56.2105 12.1875 54.3158 15Z" fill="white"/>
<path d="M5.68421 15C8.84201 19.6875 16.1053 26.25 21.7895 26.25C21.7895 22.5 24.6316 11.25 18.9473 5.625C13.2632 0.9375 3.1393 0 0 0C0.947369 8.4375 3.78953 12.1875 5.68421 15Z" fill="white"/>
<path d="M43.125 33.75C40.5 38.4375 38.75 42.1875 30.875 43.125C25.625 43.125 19.5 41.25 16.875 33.75C19.5 30.9375 18.625 31.875 22.125 28.1251C23.875 34.6875 28.242 35.6251 30.875 35.625C32.625 35.625 36.125 34.6875 37.875 28.125C40.5 30.9375 40.5 30.9375 43.125 33.75Z" fill="white"/>
</svg>
